PathFileType	4	(X/Y/Z)	Patient4_TMGait_0pt7_02_left_36.trc.trc
DataRate	CameraRate	NumFrames	NumMarkers	Units	OrigDataRate	OrigDataStartFrame	OrigNumFrames
88.050314465409	88.050314465409	4	33	mm	88.050314465409	18	       141
Frame#	Time	Sacral			L.Shoulder			Chest			R.Shoulder			Neck			R.ASIS			L.ASIS			R.Thigh.Superior			R.Thigh.Lateral			R.Thigh.Inferior			R.Patella			L.Thigh.Superior			L.Thigh.Lateral			L.Thigh.Inferior			L.Patella			L.Shank.Superior			L.Shank.Lateral			L.Shank.Inferior			R.Shank.Superior			R.Shank.Lateral			R.Shank.Inferior			R.Heel			R.Midfoot.Superior			R.Midfoot.Lateral			R.Toe			L.Heel			L.Midfoot.Lateral			L.Midfoot.Superior			L.Toe			L.Elbow			L.Wrist			R.Elbow			R.Wrist			
		X1	Y1	Z1	X2	Y2	Z2	X3	Y3	Z3	X4	Y4	Z4	X5	Y5	Z5	X6	Y6	Z6	X7	Y7	Z7	X8	Y8	Z8	X9	Y9	Z9	X10	Y10	Z10	X11	Y11	Z11	X12	Y12	Z12	X13	Y13	Z13	X14	Y14	Z14	X15	Y15	Z15	X16	Y16	Z16	X17	Y17	Z17	X18	Y18	Z18	X19	Y19	Z19	X20	Y20	Z20	X21	Y21	Z21	X22	Y22	Z22	X23	Y23	Z23	X24	Y24	Z24	X25	Y25	Z25	X26	Y26	Z26	X27	Y27	Z27	X28	Y28	Z28	X29	Y29	Z29	X30	Y30	Z30	X31	Y31	Z31	X32	Y32	Z32	X33	Y33	Z33	

18	41.383071428571	765.401322537971	1018.685328100439	515.317926782971	970.850057964645	1418.988022185131	307.407128426405	1083.399034079038	1340.969762760091	458.945449948591	1030.076171382569	1432.168156426639	636.577061915162	995.064317399208	1483.888166938328	460.176632829167	989.893764613908	936.636650916298	623.136243055555	965.575388831422	948.778107836657	347.513415769388	998.220895065509	727.621725951703	598.600727045785	901.233744006604	632.126240172279	660.564679310252	965.871010983142	568.261463227565	579.503893198666	952.306249807129	483.357108009284	584.308850407280	1048.513413739635	792.144214143264	393.085403501358	1026.567135558199	661.093958056317	309.226166119238	1129.421432013504	612.334544217671	381.126184921800	1163.809947487843	542.402333376333	378.090087763713	1141.023119111909	465.119022727049	365.763252540506	1070.202682373556	343.420127444003	300.807256788902	1138.871953694249	234.727776852895	362.525669734311	917.745718287239	398.533011534247	592.589009301041	839.856955502072	301.597951565587	657.081685281401	870.553905278741	203.436668590275	592.118835789479	724.188710497848	43.737674480668	565.985424026607	895.901715123530	96.071965383599	599.197591596981	807.948851200296	37.028340137573	639.589660210176	1016.354841941053	42.375447784531	626.496792033111	1038.019033341651	58.649345848993	381.857836525596	1121.403036225103	63.678590791774	311.641974719000	1191.400428644422	137.727904348776	344.331685868132	1326.353256594005	104.923728303091	333.070601897804	809.455903271252	1099.706535212346	225.384536458317	756.943067019911	845.910701008756	253.882986267337	1121.431072447772	1108.930270644081	761.373405315643	1353.396011448979	1132.068474433845	664.306324829906	
19	41.394428571429	766.604439159969	1017.371262168251	512.732629238421	970.053947722381	1419.035084243361	306.116968414994	1082.611089827380	1341.216823191443	457.657055401425	1028.586160006961	1431.933775539246	635.116955461184	993.579970561159	1483.560539192341	459.100950104184	990.569352659622	936.259548625705	621.575825699173	967.655158025779	947.577838426529	345.787401297835	996.344253214378	726.484507942317	597.361282624022	897.815872518860	631.969747224484	659.549787898320	961.529758808806	567.174026790358	578.932562021679	947.024312101436	482.477358081892	583.828487350625	1048.546534553306	788.122961552030	391.958263499465	1024.263330904394	657.243385545494	308.087228505961	1125.763547368072	606.944768477914	380.406254901817	1159.013632545605	537.749165452695	377.527329549652	1137.454712697742	461.045145423207	364.899936703414	1068.773341115171	337.617564634290	301.096241344089	1140.067220276213	230.678957558844	363.021708448775	911.853693723124	397.970654966669	592.073995233340	833.206823615904	301.685512141546	656.759267473621	863.259839646079	203.205736681189	591.955473921545	716.187029732772	43.768926672220	565.946133959922	887.907600922267	96.036897444318	599.203859207233	799.912408531255	37.028179497971	639.618341153545	1008.339967939270	42.232562145517	626.550555942651	1042.745199592345	53.257480318168	383.914299650053	1125.664398276478	59.148573713643	313.200430815763	1194.813637750972	134.107386917610	345.261256828058	1330.165571013773	103.040247142570	333.399263034708	803.881872981456	1103.268417433681	223.868168709273	749.180020372673	849.770785083687	254.223658004039	1129.690408155238	1112.140661745741	757.189729253185	1357.722286764174	1150.509780084229	657.126488117519	
20	41.405785714286	768.020248345014	1015.827213519112	509.969980183583	969.267070748265	1418.953288319796	304.641666973916	1081.819005957741	1341.485623527355	456.269205003793	1026.845590675734	1431.647856224261	633.514245855149	991.946734981150	1483.129535808370	457.847050372620	991.513449616748	935.716430398134	619.872641931101	970.008760745706	946.253082348006	344.037199344768	994.786256190649	725.230582092928	596.005695661912	894.643238749182	631.762062135063	658.420345920868	957.383060768730	566.029418494614	578.250605030801	941.938637305747	481.499358697508	583.240898276457	1048.853294257297	783.771192161232	390.714678058922	1021.948325501505	653.204530017058	306.878586498568	1122.206114063471	601.387969408738	379.516260122460	1154.057064761721	532.703304018544	376.779459768335	1133.486446721299	456.566085978010	363.867625390892	1066.116612757404	331.797994525602	301.622363520707	1139.654727542699	226.347432318854	363.572245539298	906.098345088077	397.336782012670	591.454932544206	826.647141293900	301.763505790412	656.375202403835	856.004774299218	202.937877291784	591.754502486805	708.186198668880	43.774683995065	565.895985189872	879.911741212396	96.007153257045	599.201874857222	791.883765984948	37.009328095033	639.621108591016	1000.334341392442	42.078585486838	626.611829290331	1044.819500871416	48.601851175509	386.469507197154	1127.010130234838	54.728489210239	314.946158777481	1196.024920168755	129.839040486602	346.211718164691	1331.401141696807	99.323574105562	333.237802643007	799.007115057251	1106.407188764350	222.415640938557	742.121797269637	853.207219074252	254.272293600475	1137.366553539516	1115.523197415761	752.929483004100	1360.680433630869	1168.160345145490	650.157108624269	
21	41.417142857143	769.596366652714	1014.097820288681	507.059279463782	968.495670191927	1418.730090291132	302.961635575885	1081.034622742080	1341.769193615101	454.765739314013	1024.878073798635	1431.309943104950	631.765089756990	990.201082304520	1482.603423982719	456.385182471214	992.693075270221	935.007158432740	618.032633403377	972.564110164065	944.850854817413	342.271911004949	993.579945928791	723.866212352831	594.557751289746	891.758825689185	631.492259031879	657.161362757641	953.518977698109	564.825621046564	577.446748424695	937.146275664205	480.404158864990	582.513493195274	1049.428867434282	779.235695123848	389.304364697218	1019.639173296274	649.099388163111	305.617437332601	1118.858917503702	595.857202667287	378.426903148659	1149.081031501195	527.463552461119	375.890489898742	1129.289048698361	451.859962871059	362.732984618575	1062.512209897984	326.108762481882	302.272733093606	1137.838675451418	221.852422033216	364.149346395056	900.546807201302	396.614811723449	590.705323563128	820.241023132306	301.836652343268	655.906083365492	848.826356969013	202.634149535870	591.501807597109	700.187230985755	43.782638606821	565.841082059507	871.928053678258	95.988786737403	599.190947092608	783.868995640218	36.986535115486	639.600186239647	992.344393155401	41.908503567725	626.683883341793	1044.401254497731	44.733250768105	389.273148669866	1125.714539190726	50.522591419112	316.739275465145	1195.257187914155	125.054671526420	347.185742177596	1330.345974283604	93.939566017142	332.765586590487	794.877081283453	1109.010170438615	220.984742397886	735.850544981506	856.133384916939	254.033545851853	1144.404078140303	1118.989573837895	748.637674549956	1362.374746872897	1184.900956641446	643.437470866142	
